<svg xmlns="http://www.w3.org/2000/svg" xmlns:xlink="http://www.w3.org/1999/xlink" version="1.1" width="1000" height="1000" viewBox="0 0 1000 1000" xml:space="preserve">
<desc>Created with Fabric.js 3.5.0</desc>
<defs>
</defs>
<rect x="0" y="0" width="100%" height="100%" fill="#ffffff"/>
<g transform="matrix(0.1568 0 0 0.1538 10.1311 9.7467)" id="802813">
<path style="stroke: none; stroke-width: 1; stroke-dasharray: none; stroke-linecap: butt; stroke-dashoffset: 0; stroke-linejoin: miter; stroke-miterlimit: 4; is-custom-font: none; font-file-url: none; fill: rgb(0,0,0); fill-rule: nonzero; opacity: 1;" vector-effect="non-scaling-stroke" transform=" translate(-61.4225, -60.1164)" d="M 47 70.06 a 19 19 0 0 1 -1.66 -2 c -1.23 -1.68 -2.37 -3.44 -3.49 -5.21 L 36.35 54 c -2.1 -3.1 -3.21 -5.86 -3.21 -8.08 s 1.25 -5.12 3.76 -5.75 a 152.65 152.65 0 0 1 -0.22 -15.93 a 21.05 21.05 0 0 1 0.66 -3.65 A 21 21 0 0 1 46.75 8.64 A 24.2 24.2 0 0 1 51.84 6.2 C 55.05 5 53.5 0.12 57 0 C 65.34 -0.22 79 6.87 84.26 12.62 a 20.91 20.91 0 0 1 5.42 13.61 l -0.33 14.49 a 4.12 4.12 0 0 1 3 3 c 0.44 1.77 0 4.2 -1.55 7.64 h 0 c 0 0.11 -0.11 0.11 -0.11 0.22 L 84.37 62 c -1.44 2.36 -2.92 4.75 -4.58 7 c -2 2.63 -3.59 2.16 -1.91 4.68 a 22 22 0 0 0 8.29 6.66 a 8.55 8.55 0 0 0 -1.19 0.22 h 0 A 7.29 7.29 0 0 0 80.38 84 l -2.27 3.93 a 7.63 7.63 0 0 0 -0.93 2.77 h 0 a 7.61 7.61 0 0 0 0.18 2.84 l 0 0.18 a 7.45 7.45 0 0 0 1.27 2.57 l 0.06 0.09 q -0.24 0.15 -0.48 0.33 a 7.3 7.3 0 0 0 -2 2.26 a 7.39 7.39 0 0 0 -0.95 2.85 a 7.93 7.93 0 0 0 0.2 2.86 h 0 l 1.15 4.37 a 5.51 5.51 0 0 0 0.37 1 a 7.55 7.55 0 0 0 1 1.73 c 0.1 0.13 0.21 0.25 0.32 0.37 s 0.37 0.38 0.56 0.56 H 0 c 0 -33 35.5 -22.55 47.58 -39.15 c 1.39 -2.08 1 -1.88 -0.55 -3.55 Z m 74.74 23.68 a 1.92 1.92 0 0 0 -0.91 -1.2 a 1.86 1.86 0 0 0 -1.48 -0.18 l -2.87 0.76 a 14.86 14.86 0 0 0 -1.06 -1.73 a 18.15 18.15 0 0 0 -1.28 -1.59 L 115.78 87 a 1.9 1.9 0 0 0 -0.71 -2.65 l -3.5 -2 a 1.89 1.89 0 0 0 -1.46 -0.2 a 1.87 1.87 0 0 0 -1.18 0.91 l -1.48 2.55 a 14.06 14.06 0 0 0 -2 -0.45 a 15.22 15.22 0 0 0 -2 -0.19 l -0.87 -3.15 a 1.78 1.78 0 0 0 -0.87 -1.17 a 1.89 1.89 0 0 0 -1.49 -0.19 l -3.87 1 a 1.9 1.9 0 0 0 -1.19 0.91 A 1.86 1.86 0 0 0 95 83.88 l 0.77 2.87 A 13.36 13.36 0 0 0 94 87.81 a 16.31 16.31 0 0 0 -1.6 1.28 l -2.79 -1.62 a 1.9 1.9 0 0 0 -1.47 -0.2 a 1.85 1.85 0 0 0 -1.18 0.92 l -2 3.5 a 1.87 1.87 0 0 0 -0.19 1.45 a 1.81 1.81 0 0 0 0.9 1.19 l 2.55 1.48 a 15.58 15.58 0 0 0 -0.45 2 a 15.35 15.35 0 0 0 -0.2 2 l -3.13 0.83 a 1.76 1.76 0 0 0 -1.18 0.88 a 1.9 1.9 0 0 0 -0.19 1.48 l 1 3.9 a 1.91 1.91 0 0 0 0.92 1.16 a 1.88 1.88 0 0 0 1.46 0.22 l 2.89 -0.79 a 14.86 14.86 0 0 0 1.06 1.73 c 0.4 0.55 0.83 1.08 1.28 1.59 l -1.61 2.79 a 1.91 1.91 0 0 0 -0.21 1.47 a 1.88 1.88 0 0 0 0.92 1.18 l 3.5 2 a 2 2 0 0 0 2.65 -0.71 L 98.44 115 a 14.1 14.1 0 0 0 2 0.46 a 17.27 17.27 0 0 0 2 0.2 l 0.83 3.13 a 1.82 1.82 0 0 0 0.89 1.19 a 1.77 1.77 0 0 0 1.47 0.17 l 3.91 -1 a 2 2 0 0 0 1.37 -2.39 l -0.79 -2.88 a 14.07 14.07 0 0 0 1.73 -1.06 a 19.77 19.77 0 0 0 1.59 -1.28 l 2.79 1.61 a 1.92 1.92 0 0 0 2.65 -0.71 l 2 -3.5 a 2 2 0 0 0 -0.71 -2.65 l -2.55 -1.47 a 17.82 17.82 0 0 0 0.44 -2 a 14.25 14.25 0 0 0 0.2 -2 l 3.14 -0.86 a 1.79 1.79 0 0 0 1.18 -0.88 a 1.86 1.86 0 0 0 0.19 -1.48 l -1 -3.87 Z m -14.86 -0.29 a 8 8 0 0 1 2.36 2.08 a 7.78 7.78 0 0 1 1.55 5.76 A 8 8 0 0 1 105 108 a 7.87 7.87 0 0 1 -3 0.2 a 8.06 8.06 0 0 1 -5.35 -3.09 a 7.79 7.79 0 0 1 -1.54 -5.75 A 8 8 0 0 1 98.16 94 a 7.78 7.78 0 0 1 5.76 -1.55 a 8.09 8.09 0 0 1 3 1 Z" stroke-linecap="round"/>
</g>
</svg>